<?xml version="1.0" standalone="no"?><!DOCTYPE svg PUBLIC "-//W3C//DTD SVG 1.1//EN" "http://www.w3.org/Graphics/SVG/1.1/DTD/svg11.dtd"><svg t="1546505131202" class="icon" style="" viewBox="0 0 1024 1024" version="1.1" xmlns="http://www.w3.org/2000/svg" p-id="5345" xmlns:xlink="http://www.w3.org/1999/xlink" width="200" height="200"><defs><style type="text/css"></style></defs><path d="M701.8 497.7c102.2 0 195.3-83.2 195.3-185.4S814 126.9 711.7 126.9 526.3 210 526.3 312.3s73.3 185.4 175.5 185.4z m9.9-306.6c66.7 0 121.1 54.4 121.1 121.1s-54.4 121.1-121.1 121.1-121.1-54.3-121.1-121S645 191.1 711.7 191.1zM406.2 136.8H198.6c-39.6 0-71.7 32.1-71.7 71.7v207.6c0 39.6 32.1 71.7 71.7 71.7h207.6c39.6 0 71.7-32.1 71.7-71.7V208.4c0-39.5-32.1-71.6-71.7-71.6z m7.4 279.3c0 4.1-3.4 7.4-7.4 7.4H198.6c-4.1 0-7.4-3.4-7.4-7.4V208.4c0-4.1 3.4-7.4 7.4-7.4h207.6c4.1 0 7.4 3.4 7.4 7.4v207.7zM406.2 546.1H198.6c-39.6 0-71.7 32.1-71.7 71.7v207.6c0 39.6 32.1 71.7 71.7 71.7h207.6c39.6 0 71.7-32.1 71.7-71.7V617.8c0-39.6-32.1-71.7-71.7-71.7z m7.4 279.3c0 4.1-3.4 7.4-7.4 7.4H198.6c-4.1 0-7.4-3.4-7.4-7.4V617.8c0-4.1 3.4-7.4 7.4-7.4h207.6c4.1 0 7.4 3.4 7.4 7.4v207.6zM815.6 546.1H607.9c-39.6 0-71.7 32.1-71.7 71.7v207.6c0 39.6 32.1 71.7 71.7 71.7h207.6c39.6 0 71.7-32.1 71.7-71.7V617.8c0-39.6-32.1-71.7-71.6-71.7z m7.4 279.3c0 4.1-3.4 7.4-7.4 7.4H607.9c-4.1 0-7.4-3.4-7.4-7.4V617.8c0-4.1 3.4-7.4 7.4-7.4h207.6c4.1 0 7.4 3.4 7.4 7.4v207.6z" fill="#2c2c2c" p-id="5346"></path></svg>