<?xml version="1.0" standalone="no"?><!DOCTYPE svg PUBLIC "-//W3C//DTD SVG 1.1//EN" "http://www.w3.org/Graphics/SVG/1.1/DTD/svg11.dtd"><svg t="1546055132482" class="icon" style="" viewBox="0 0 1024 1024" version="1.1" xmlns="http://www.w3.org/2000/svg" p-id="4255" xmlns:xlink="http://www.w3.org/1999/xlink" width="200" height="200"><defs><style type="text/css"></style></defs><path d="M567.107658 696.769084 464.120543 696.769084 464.120543 620.732834c0-43.590478 26.419813-92.402963 80.756708-149.218099 46.415377-44.22479 69.840649-82.231851 70.054545-113.409-4.381175-61.011918-33.721771-90.492652-92.343957-92.73487C450.077181 267.679464 416.289029 308.164766 416.289029 392.756846L416.289029 405.664348 316.584108 405.664348l0.236023-13.136149c2.433986-136.074574 71.514937-207.596886 205.332541-212.590245l0.5163-0.014751 0.5163 0.022127c114.714502 5.022862 176.670511 64.530134 184.17899 176.869656l0.044254 0.715444-0.029503 0.715444c-2.492992 56.874142-32.084362 114.035936-87.948031 169.90698-43.243819 43.243819-52.338077 68.498269-52.338077 82.06221L567.092906 696.769084zM489.935547 670.95408l51.357106 0 0-60.746392c0-27.209014 19.5899-60.023572 59.898185-100.317105 50.907188-50.914564 77.94656-102.079901 80.365795-152.0725-6.756155-97.765108-58.762325-147.514308-158.968794-152.057749-114.54486 4.440181-173.380942 61.424958-179.488035 174.096387l47.647122 0c4.845845-112.464909 73.543258-138.574941 131.509006-140.293483l0.420416-0.014751 0.420416 0.014751c71.795214 2.5815 112.47966 43.118432 117.620534 117.222245l0.029503 0.892462c0 39.135546-25.394588 82.349863-77.644156 132.106439-48.40682 50.634286-73.167097 94.836949-73.167097 130.948451L489.935547 670.95408z" p-id="4256" fill="#515151"></path><path d="M570.618498 844.069496 460.617079 844.069496 460.617079 741.111885l110.00142 0L570.618498 844.069496zM486.432083 818.254492l58.371412 0 0-51.327604L486.432083 766.926889 486.432083 818.254492z" p-id="4257" fill="#515151"></path><path d="M512.003688 0C229.23351 0 0.003651 229.229859 0.003651 512.007413c0 282.762802 229.229859 511.992661 512.000037 511.992661s511.992661-229.222484 511.992661-511.992661C1023.996349 229.229859 794.773865 0 512.003688 0zM512.003688 999.033277c-268.970214 0-487.018489-218.048275-487.018489-487.025864 0-268.97759 218.048275-487.025864 487.018489-487.025864 268.984965 0 487.025864 218.048275 487.025864 487.025864C999.029552 780.985002 780.988653 999.033277 512.003688 999.033277z" p-id="4258" fill="#515151"></path></svg>